<?xml version="1.0" standalone="no"?>
<!DOCTYPE svg PUBLIC "-//W3C//DTD SVG 20010904//EN"
 "http://www.w3.org/TR/2001/REC-SVG-20010904/DTD/svg10.dtd">
<svg version="1.0" xmlns="http://www.w3.org/2000/svg"
 width="512.000000pt" height="512.000000pt" viewBox="0 0 512.000000 512.000000"
 preserveAspectRatio="xMidYMid meet">
<metadata>
Created by potrace 1.14, written by Peter Selinger 2001-2017
</metadata>
<g transform="translate(0.000000,512.000000) scale(0.100000,-0.100000)"
fill="#000000" stroke="none">
<path d="M2385 4750 c3 -6 1 -10 -5 -10 -6 0 -8 -5 -4 -12 5 -9 2 -9 -9 1 -14
11 -17 11 -17 0 0 -11 -2 -11 -10 1 -7 11 -10 11 -10 2 0 -7 -4 -11 -9 -8 -5
4 -11 1 -13 -4 -2 -6 -13 -12 -26 -13 -12 0 -22 -5 -22 -9 0 -4 -7 -4 -17 -1
-10 4 -14 2 -10 -4 4 -6 -2 -13 -13 -16 -11 -3 -20 0 -21 6 0 7 -4 2 -9 -10
-7 -16 -14 -21 -26 -16 -11 4 -15 2 -11 -4 8 -12 -20 -26 -34 -18 -5 4 -6 -2
-2 -11 4 -11 2 -15 -4 -11 -6 4 -21 -2 -33 -13 -13 -11 -27 -20 -32 -20 -5 0
-6 -5 -2 -12 5 -8 2 -9 -10 -5 -14 6 -17 3 -12 -9 5 -12 2 -15 -9 -10 -9 3
-13 2 -10 -4 3 -6 1 -10 -4 -10 -6 0 -11 -7 -11 -15 0 -8 -5 -15 -11 -15 -7 0
-22 -11 -35 -25 -13 -14 -21 -25 -18 -25 3 0 -4 -10 -16 -22 -11 -12 -20 -25
-20 -29 0 -4 -9 -9 -20 -12 -11 -3 -20 -1 -20 3 0 4 -10 6 -22 2 -16 -4 -19
-2 -13 9 7 12 6 12 -7 1 -13 -10 -17 -10 -21 0 -4 10 -6 10 -6 -1 -1 -11 -4
-11 -17 0 -13 10 -17 10 -25 -2 -7 -11 -9 -10 -9 6 0 16 -2 17 -10 5 -8 -12
-10 -12 -16 3 -6 17 -7 17 -21 0 -8 -10 -12 -13 -9 -7 3 6 -12 10 -39 10 -26
-1 -41 -5 -37 -11 3 -5 -2 -4 -11 4 -11 8 -17 9 -17 3 0 -6 -7 -9 -16 -5 -9 3
-20 0 -25 -8 -7 -12 -9 -12 -9 0 0 11 -3 11 -15 1 -12 -10 -15 -10 -15 1 0 9
-3 10 -8 4 -4 -5 -18 -11 -32 -13 -14 -1 -30 -3 -37 -4 -7 -1 -15 -8 -18 -16
-4 -11 -8 -12 -20 -2 -8 7 -15 9 -15 4 0 -5 -12 -10 -26 -10 -14 -1 -31 -10
-38 -20 -7 -9 -18 -14 -24 -10 -7 4 -12 2 -12 -4 0 -6 -4 -8 -10 -5 -5 3 -10
1 -10 -4 0 -6 -7 -11 -16 -11 -9 0 -12 -5 -8 -12 5 -8 0 -7 -11 2 -10 8 -16
10 -13 5 4 -6 -10 -22 -30 -35 -20 -14 -48 -38 -63 -53 -19 -19 -29 -24 -32
-15 -4 10 -6 10 -6 -1 -1 -7 -13 -22 -27 -33 -14 -11 -23 -27 -20 -34 3 -8 -1
-14 -9 -14 -8 0 -14 -6 -12 -12 1 -7 -3 -12 -10 -11 -8 2 -10 -4 -6 -14 4 -9
2 -14 -3 -10 -6 3 -16 -3 -23 -15 -7 -11 -8 -17 -2 -13 6 3 11 1 11 -4 0 -10
-13 -15 -31 -13 -3 1 -6 -5 -6 -13 0 -8 3 -12 7 -10 4 2 7 -2 7 -10 0 -8 -4
-12 -9 -9 -4 3 -8 0 -8 -6 0 -6 -5 -8 -11 -4 -7 4 -6 -2 2 -17 11 -22 11 -23
-5 -10 -14 12 -16 12 -11 -1 3 -8 -1 -20 -9 -27 -17 -14 -10 -45 8 -34 6 4 5
-1 -3 -10 -7 -9 -18 -14 -25 -10 -7 4 -6 1 1 -9 11 -12 10 -21 -3 -47 -15 -30
-15 -33 2 -47 14 -10 15 -13 3 -9 -10 4 -16 0 -16 -9 0 -8 5 -13 10 -9 5 3 4
-5 -3 -17 -8 -15 -9 -25 -1 -33 6 -6 7 -17 2 -26 -10 -18 -9 -67 2 -77 3 -4 2
-15 -3 -25 -6 -10 -6 -20 -1 -23 4 -3 7 -17 6 -30 -2 -14 3 -30 11 -37 10 -8
11 -16 3 -31 -6 -11 -7 -18 -2 -15 4 3 14 -1 21 -9 10 -11 10 -14 0 -14 -10 0
-10 -2 1 -9 9 -6 10 -11 2 -15 -6 -4 -11 -13 -11 -19 0 -9 2 -9 8 0 5 8 13 9
22 3 10 -7 11 -10 3 -10 -7 0 -13 -5 -13 -11 0 -5 5 -7 12 -3 8 5 9 0 5 -15
-3 -15 0 -24 10 -28 8 -3 13 -14 10 -24 -3 -10 0 -16 7 -13 6 2 17 -5 24 -17
11 -17 11 -20 0 -14 -7 3 -5 0 4 -8 10 -8 15 -16 12 -19 -3 -3 9 -16 26 -28
17 -12 29 -29 28 -38 -2 -12 4 -17 20 -16 19 1 20 -1 10 -14 -10 -13 -10 -14
0 -8 7 4 15 1 18 -8 3 -9 12 -16 20 -16 8 0 14 -6 14 -14 0 -8 10 -18 22 -22
13 -4 29 -14 36 -23 11 -13 12 -13 7 -1 -4 10 -2 9 8 -2 8 -10 21 -18 30 -18
8 0 18 -7 21 -16 3 -9 12 -14 18 -12 7 3 19 -1 26 -8 7 -7 21 -11 32 -9 11 2
18 0 15 -6 -5 -8 15 -14 38 -10 4 0 7 -3 7 -8 0 -5 7 -12 16 -15 8 -3 12 -2 9
4 -11 17 7 11 21 -7 7 -10 14 -13 14 -6 0 15 40 4 40 -11 0 -6 5 -4 10 4 5 8
10 12 11 8 1 -5 2 -11 3 -15 1 -5 5 -14 9 -20 5 -8 3 -13 -5 -13 -9 0 -9 -3 2
-10 13 -9 13 -10 0 -11 -10 0 -8 -3 5 -9 l20 -9 -20 0 c-17 -1 -18 -3 -5 -12
12 -8 12 -12 2 -16 -10 -4 -9 -8 5 -19 17 -13 17 -13 0 -14 -10 0 -15 -5 -12
-10 4 -6 10 -8 14 -6 4 3 8 -1 8 -9 0 -8 -4 -12 -8 -10 -4 3 -5 -5 -1 -17 4
-16 2 -19 -9 -14 -8 4 -5 0 5 -8 15 -12 16 -16 5 -16 -12 0 -12 -2 1 -10 13
-8 12 -11 -3 -23 -18 -13 -18 -13 0 -28 16 -13 17 -13 4 4 -7 9 -9 17 -3 17 5
0 12 -6 14 -12 7 -18 -2 -39 -13 -33 -5 4 -6 -1 -3 -9 3 -9 11 -13 18 -9 8 5
8 3 0 -8 -14 -18 -14 -52 0 -61 8 -5 7 -8 -1 -8 -7 0 -13 -5 -13 -11 0 -5 4
-8 8 -5 4 2 9 -5 9 -17 2 -17 0 -19 -7 -7 -8 13 -10 13 -10 -1 0 -9 3 -19 7
-23 11 -10 12 -37 2 -30 -5 3 -9 0 -9 -5 0 -6 6 -11 13 -11 8 0 7 -4 -3 -10
-13 -8 -13 -10 0 -10 11 0 11 -3 2 -12 -17 -17 -15 -28 5 -28 15 0 15 -1 -2
-13 -11 -9 -14 -16 -7 -20 5 -4 8 -16 5 -27 -3 -12 0 -20 8 -20 8 0 5 -6 -7
-16 -10 -8 -14 -13 -8 -10 7 3 17 -1 24 -9 11 -13 10 -14 -6 -8 -15 5 -17 4
-8 -8 14 -18 14 -50 0 -42 -6 4 -2 -4 8 -16 20 -22 20 -22 0 -15 -15 6 -17 5
-8 -7 6 -8 10 -26 7 -41 -2 -14 1 -30 7 -33 8 -5 7 -11 -1 -21 -9 -11 -8 -14
2 -14 8 0 6 -5 -6 -13 -13 -10 -15 -16 -6 -21 6 -4 8 -12 5 -18 -4 -7 -2 -8 4
-4 6 4 11 -1 11 -11 -1 -37 20 -85 32 -77 5 3 9 -2 9 -11 0 -12 5 -15 17 -11
10 4 14 4 11 0 -11 -10 27 -45 51 -47 11 -1 21 -8 21 -17 0 -9 3 -11 8 -5 9
13 32 18 32 7 0 -8 10 -9 80 -14 17 -1 30 -6 30 -11 0 -5 7 -4 15 3 12 10 15
10 15 0 0 -9 4 -9 17 1 11 9 14 10 9 2 -5 -9 1 -12 23 -9 18 2 31 -1 31 -8 0
-6 5 -4 10 4 5 8 10 11 10 5 0 -6 26 -9 60 -8 38 1 60 -3 60 -10 0 -6 7 -2 15
9 9 11 13 13 10 4 -4 -11 2 -15 19 -15 13 0 22 3 20 7 -3 4 5 6 16 5 11 -1 20
-6 20 -12 0 -5 5 -3 10 5 5 8 10 10 10 4 0 -14 30 -14 30 0 0 6 4 5 9 -2 4 -8
12 -14 16 -14 4 0 12 6 16 14 7 10 9 10 9 1 0 -7 7 -13 16 -13 8 0 12 5 8 11
-3 6 6 3 22 -7 15 -11 25 -14 21 -8 -4 7 0 15 9 18 8 3 12 2 9 -4 -6 -9 27
-16 50 -10 6 1 16 2 23 1 14 -1 29 -1 100 0 32 0 52 5 53 12 0 7 4 3 9 -8 5
-11 9 -14 9 -6 1 11 4 11 16 1 12 -10 15 -9 15 6 0 13 3 15 8 7 8 -13 29 -12
51 1 10 6 12 5 7 -2 -4 -7 -1 -12 8 -12 9 0 16 6 16 13 0 9 3 8 9 -2 7 -10 13
-11 31 -1 18 10 21 9 15 -1 -6 -9 -3 -11 9 -6 10 4 30 10 44 13 21 4 24 3 12
-5 -9 -7 -10 -11 -3 -11 6 0 14 4 17 8 3 5 27 8 55 8 27 -1 47 2 44 6 -2 5 7
4 21 -2 16 -6 26 -6 26 0 0 6 10 6 26 0 18 -7 23 -7 18 1 -4 7 -1 10 7 7 8 -3
22 -1 33 4 14 7 16 7 11 -2 -6 -9 -1 -10 16 -4 13 4 34 8 47 8 12 0 22 5 22
11 0 5 5 3 10 -5 5 -8 10 -10 10 -4 0 5 14 9 30 8 17 -1 30 3 30 9 0 8 3 8 8
2 9 -13 35 -18 28 -6 -4 5 4 10 16 10 13 0 33 1 46 1 12 0 22 6 22 13 0 8 4 7
10 -3 7 -11 10 -11 10 -2 0 7 5 10 10 7 6 -3 10 0 10 7 0 9 3 9 10 -2 8 -13
10 -12 10 4 0 11 3 16 7 13 3 -4 12 1 20 11 9 11 12 11 7 2 -4 -8 7 1 25 20
17 19 29 40 27 47 -5 11 5 17 26 14 10 -1 3 26 -12 45 -8 10 -10 15 -3 11 6
-4 14 -3 18 3 3 5 1 10 -4 10 -6 0 -11 5 -11 11 0 5 5 7 12 3 7 -5 8 -3 3 5
-4 7 -8 25 -9 41 -2 21 2 27 14 23 13 -4 13 -3 1 5 -15 11 -25 46 -11 37 4 -3
10 2 14 10 3 8 -3 19 -12 24 -15 10 -15 10 2 11 20 0 20 0 0 16 -10 8 -13 12
-5 8 10 -5 13 -3 8 8 -3 9 0 21 6 28 9 10 9 11 0 6 -15 -8 -18 10 -3 19 6 3
10 12 10 18 0 7 -4 6 -10 -3 -5 -8 -10 -10 -10 -4 0 5 5 15 12 22 9 9 9 12 -2
13 -10 0 -7 4 5 9 15 6 16 9 4 9 -9 1 -16 8 -16 16 0 8 4 12 9 9 4 -3 8 0 8 5
0 6 -5 11 -11 11 -5 0 -7 5 -4 10 4 6 10 8 15 5 5 -3 5 8 0 24 -6 21 -5 31 3
35 7 2 3 5 -8 5 -17 1 -17 3 -5 11 12 8 13 13 2 30 -10 17 -10 21 4 27 13 5
13 7 2 14 -9 6 -10 9 -1 9 9 0 10 7 3 26 -7 16 -7 32 0 43 5 10 6 21 3 25 -4
3 -7 15 -8 26 -1 16 1 18 13 7 13 -10 14 -9 4 10 -8 14 -9 24 -2 28 13 8 13
25 -1 25 -5 0 -7 -5 -3 -12 5 -7 3 -8 -5 -4 -10 6 -9 12 1 24 12 15 16 36 8
45 -7 7 -5 55 2 51 4 -3 8 -1 8 5 0 5 -6 12 -12 14 -10 4 -10 6 0 6 6 1 12 9
12 19 0 15 -2 15 -11 2 -9 -12 -9 -11 -4 5 4 11 8 25 8 32 0 7 4 10 9 7 5 -3
5 -10 2 -16 -4 -7 -2 -8 5 -4 6 4 9 11 7 15 -3 4 -1 13 5 21 7 12 9 12 9 1 0
-10 3 -11 14 -2 11 9 15 9 19 -1 4 -11 6 -10 6 0 1 7 6 10 11 7 6 -3 10 -1 10
6 0 9 3 9 14 0 11 -9 16 -9 22 0 5 8 3 9 -6 4 -9 -6 -11 -4 -6 4 5 7 14 10 22
7 8 -3 14 -2 14 3 0 5 12 7 26 5 19 -2 24 1 20 12 -5 12 -2 12 15 3 14 -7 19
-7 15 0 -8 13 23 31 55 31 5 0 8 4 5 9 -3 5 2 8 12 7 9 0 16 4 15 11 -2 8 4
10 14 6 12 -5 15 -2 10 10 -4 11 -2 14 9 10 7 -3 14 1 14 8 0 7 3 10 6 6 3 -3
16 5 29 18 12 14 25 22 28 19 3 -3 8 4 12 15 3 12 13 21 21 21 8 0 13 3 11 8
-6 9 19 33 27 25 5 -6 10 20 7 39 0 4 6 5 15 1 9 -3 14 0 12 8 -2 8 3 13 10
11 10 -2 10 2 2 18 -8 16 -8 18 4 14 11 -4 14 0 11 15 -2 12 0 19 6 16 17 -11
30 5 19 26 -8 14 -8 19 1 17 6 -2 13 6 15 16 1 10 9 23 16 27 10 7 10 9 -2 9
-12 1 -12 3 2 14 10 7 15 15 13 18 -3 3 1 11 9 17 8 7 12 20 9 28 -4 10 -2 14
4 10 5 -3 10 0 10 8 0 8 -4 12 -9 9 -4 -3 -8 -1 -8 4 0 6 6 12 13 15 14 5 15
56 2 78 -5 7 -4 10 2 6 7 -4 9 30 8 101 -4 155 -4 154 -13 148 -4 -2 -9 4 -9
15 -1 11 2 17 7 14 4 -3 7 2 6 12 -2 9 -11 20 -22 24 -12 5 -14 8 -5 8 11 1
10 5 -5 16 -12 9 -14 14 -6 15 7 0 10 5 7 10 -4 6 -12 7 -18 4 -7 -4 -9 -4 -5
1 4 4 1 22 -7 40 -7 19 -10 37 -7 41 4 4 0 5 -10 1 -12 -4 -15 0 -13 18 1 14
-2 22 -6 19 -5 -3 -9 2 -9 10 0 9 -8 16 -17 16 -15 0 -16 2 -3 10 13 8 12 10
-3 10 -10 0 -16 4 -13 8 3 5 -4 14 -14 22 -10 8 -17 17 -14 22 3 4 -2 8 -10 8
-8 0 -24 14 -36 30 -12 17 -26 27 -32 24 -7 -4 -8 -2 -4 4 4 7 2 12 -4 12 -6
0 -8 5 -5 11 4 6 0 9 -11 7 -11 -2 -18 2 -17 9 2 8 -4 10 -15 6 -9 -3 -14 -3
-10 2 8 9 -36 35 -59 35 -8 0 -11 4 -8 10 3 5 0 7 -8 4 -8 -3 -20 2 -27 11 -7
8 -23 15 -37 15 -16 0 -22 4 -17 13 4 6 4 9 -1 5 -4 -4 -15 -2 -23 5 -13 10
-14 9 -8 -2 5 -8 -3 -6 -20 5 -19 13 -25 14 -19 5 6 -11 3 -11 -14 2 -13 8
-30 13 -39 10 -11 -5 -13 -3 -7 8 8 12 6 12 -8 0 -14 -11 -17 -11 -17 0 0 12
-2 12 -9 0 -6 -9 -11 -10 -15 -2 -4 6 -17 10 -29 10 -12 0 -48 1 -79 4 -35 2
-55 0 -51 -6 4 -6 0 -6 -11 0 -23 13 -88 4 -79 -11 4 -6 0 -5 -9 2 -9 7 -19 9
-22 4 -3 -5 -16 -9 -28 -8 -13 1 -29 -5 -36 -14 -8 -8 -11 -9 -7 -2 4 8 -1 12
-14 12 -12 0 -21 5 -21 11 0 5 6 7 13 3 7 -4 9 -3 4 2 -5 5 -13 10 -18 10 -22
3 -23 5 -9 15 12 9 11 10 -7 6 -16 -4 -23 0 -23 10 0 8 5 11 12 7 7 -4 8 -3 4
4 -4 7 -14 12 -22 12 -8 0 -14 5 -14 11 0 14 -39 49 -54 49 -6 0 -4 5 4 10 11
7 11 10 2 10 -19 0 -83 46 -75 53 3 4 -4 7 -16 7 -12 0 -19 4 -16 10 3 6 -3
10 -13 10 -11 0 -30 11 -43 24 -13 13 -29 22 -36 19 -7 -3 -13 -1 -13 4 0 5
-20 15 -45 22 -25 7 -45 18 -45 25 0 6 -5 4 -10 -4 -5 -8 -10 -10 -10 -4 0 15
-38 25 -46 13 -7 -12 -24 -2 -24 14 0 7 4 6 10 -3 5 -8 10 -10 10 -4 0 18 -13
24 -27 13 -7 -6 -13 -7 -13 -2 0 4 -69 9 -152 9 -126 0 -155 -3 -166 -16 -8
-8 -11 -10 -8 -4 3 7 -1 15 -10 18 -8 3 -12 2 -9 -4z m236 -234 c0 18 1 18 9
-1 6 -13 9 -15 9 -5 1 10 4 11 9 4 4 -6 19 -10 34 -9 15 1 29 -3 32 -10 2 -6
18 -10 35 -9 17 1 28 -2 25 -7 -3 -5 4 -9 15 -9 28 0 72 -21 65 -31 -3 -5 4
-9 16 -9 12 0 18 -4 15 -10 -3 -5 3 -10 15 -10 12 0 18 -4 15 -10 -3 -5 3 -10
15 -10 12 0 19 -4 15 -9 -3 -6 4 -15 15 -21 11 -6 17 -16 14 -22 -4 -7 -3 -8
4 -4 13 8 35 -27 24 -40 -4 -5 1 -2 11 5 15 12 17 11 17 -3 0 -10 7 -24 15
-33 8 -8 13 -19 10 -24 -4 -5 -1 -9 5 -9 7 0 10 -7 7 -14 -4 -11 -1 -13 11 -9
15 6 16 5 2 -13 -8 -10 -11 -16 -6 -12 4 4 14 1 21 -5 10 -9 10 -15 1 -26 -9
-12 -8 -13 3 -6 11 6 13 4 8 -8 -4 -10 -2 -16 5 -14 6 1 13 -4 16 -12 3 -9 0
-11 -9 -7 -8 4 -6 1 3 -7 10 -8 16 -16 13 -19 -3 -2 2 -5 10 -5 8 0 15 5 15
11 0 6 4 5 9 -3 7 -11 13 -10 34 4 14 9 30 17 34 18 4 1 7 6 5 10 -1 5 2 6 8
2 6 -4 18 -1 27 7 14 11 16 11 9 -2 -4 -9 -2 -8 7 2 8 10 17 15 20 11 4 -3 7
0 7 8 0 11 2 11 10 -1 7 -12 10 -12 10 -1 0 7 6 11 15 7 9 -3 15 1 15 11 0 13
3 13 15 3 12 -10 15 -10 15 0 0 9 3 10 13 1 8 -6 17 -7 21 -3 13 12 86 11 86
-2 0 -6 4 -4 10 4 5 8 12 11 16 7 4 -4 14 -1 22 6 10 8 13 8 9 1 -4 -7 0 -14
8 -18 8 -3 17 -1 20 5 4 5 11 7 16 3 5 -3 6 -11 2 -17 -4 -7 0 -6 10 2 14 11
17 11 17 0 0 -11 2 -11 10 1 7 11 10 11 10 2 0 -7 5 -10 10 -7 6 3 10 2 10 -4
0 -5 9 -8 19 -6 11 2 22 -3 25 -11 3 -9 10 -13 15 -10 14 9 42 -5 34 -17 -4
-6 0 -8 10 -4 10 4 17 1 17 -5 0 -6 3 -8 6 -5 4 4 15 -3 25 -14 9 -11 21 -21
26 -22 4 -1 7 -5 6 -9 -2 -5 3 -8 10 -8 17 0 68 -60 61 -71 -3 -5 1 -9 9 -9 7
0 14 -6 15 -12 2 -27 8 -48 17 -55 4 -4 5 -1 0 7 -6 12 -5 13 6 2 7 -6 13 -24
14 -40 0 -15 5 -26 11 -25 5 1 10 -7 10 -18 0 -10 -4 -19 -9 -19 -5 0 -2 -12
8 -26 9 -15 12 -23 6 -20 -18 11 -13 -5 7 -21 9 -8 12 -12 5 -9 -15 8 -15 -56
1 -66 7 -5 7 -8 -2 -8 -7 0 -10 -4 -7 -10 3 -5 2 -10 -3 -10 -5 0 -7 -11 -4
-25 2 -14 -2 -32 -9 -41 -10 -13 -10 -17 2 -25 8 -5 9 -9 3 -9 -7 0 -15 -7
-18 -16 -3 -8 -2 -12 4 -9 6 3 10 1 10 -4 0 -6 -8 -11 -17 -11 -15 0 -16 -2
-3 -10 13 -8 8 -14 -11 -12 -4 1 -5 -12 -4 -28 1 -17 -2 -28 -9 -27 -6 1 -10
-6 -8 -16 2 -9 -4 -20 -13 -23 -9 -4 -14 -13 -11 -21 3 -8 2 -12 -3 -9 -5 3
-12 -1 -15 -10 -3 -8 -11 -12 -17 -8 -8 4 -9 3 -5 -4 8 -14 -31 -55 -44 -47
-6 4 -7 -1 -3 -11 4 -11 2 -15 -4 -11 -6 4 -14 0 -17 -9 -3 -8 -10 -13 -15
-10 -5 3 -12 -1 -15 -10 -3 -8 -10 -12 -16 -9 -5 3 -10 1 -10 -5 0 -7 -7 -9
-16 -6 -14 6 -15 4 -4 -9 12 -14 10 -15 -13 -11 -15 3 -27 0 -27 -6 0 -5 -7
-8 -15 -4 -8 3 -15 1 -15 -5 0 -6 -4 -7 -10 -4 -5 3 -10 2 -10 -4 0 -6 -6 -8
-14 -5 -8 3 -17 1 -21 -5 -3 -6 -11 -11 -16 -11 -6 0 -7 6 -3 13 6 9 5 9 -8 0
-8 -7 -18 -10 -21 -6 -4 3 -7 0 -7 -8 0 -11 -2 -11 -10 1 -5 8 -10 11 -10 5 0
-5 -22 -10 -49 -10 -27 -1 -48 2 -45 6 2 4 -9 4 -26 -1 -17 -5 -34 -10 -38
-11 -22 -5 -32 -12 -32 -21 0 -5 5 -6 11 -3 6 4 5 -2 -3 -14 -10 -17 -10 -25
-1 -41 10 -15 10 -18 0 -15 -8 4 -12 -7 -12 -34 0 -33 2 -38 15 -28 8 6 5 0
-8 -15 -17 -19 -20 -28 -11 -33 8 -6 10 -4 4 5 -5 9 -4 11 3 6 9 -5 7 -14 -4
-31 -14 -21 -14 -24 3 -34 17 -10 17 -10 -2 -11 -12 -1 -15 -4 -7 -7 10 -4 10
-8 0 -21 -8 -9 -8 -13 -2 -9 7 4 15 0 18 -9 3 -8 2 -12 -4 -9 -6 3 -10 1 -10
-5 0 -6 -6 -8 -12 -4 -7 4 -4 -2 6 -14 14 -17 16 -22 5 -22 -11 0 -11 -2 1
-10 13 -9 13 -10 0 -10 -13 0 -13 -1 0 -10 11 -7 11 -10 2 -10 -8 0 -10 -5 -5
-12 13 -21 10 -52 -6 -71 -14 -16 -13 -17 5 -11 18 7 18 7 1 -13 -14 -16 -15
-23 -6 -29 8 -5 10 -3 4 6 -5 8 -4 11 3 6 6 -4 9 -13 6 -21 -4 -8 -10 -12 -15
-9 -5 3 -6 -1 -3 -9 7 -19 -21 -43 -32 -26 -5 8 -3 9 6 4 9 -5 11 -4 6 4 -5 7
-12 9 -19 3 -7 -4 -19 -8 -27 -7 -8 0 -18 -4 -22 -10 -5 -6 -8 -5 -8 3 0 9 -5
10 -17 4 -11 -7 -21 -6 -30 3 -17 18 -18 58 0 50 6 -3 4 0 -5 7 -15 11 -15 13
-1 23 13 10 13 14 3 20 -9 6 -11 4 -5 -5 5 -8 4 -11 -3 -7 -13 9 -4 47 12 48
6 0 2 4 -9 9 -11 5 -14 9 -6 9 10 1 11 4 3 14 -8 9 -7 20 3 40 8 15 10 29 4
32 -14 9 -11 37 4 29 6 -4 4 2 -6 14 -11 11 -16 26 -12 31 3 6 -1 11 -10 11
-9 0 -13 5 -9 11 4 8 0 8 -15 0 -14 -8 -21 -8 -21 -1 0 5 -5 10 -11 10 -5 0
-7 -5 -3 -12 5 -8 2 -9 -9 -5 -9 3 -16 3 -16 -1 3 -18 -2 -33 -9 -28 -4 2 -9
-9 -10 -27 -2 -17 -7 -36 -13 -43 -6 -7 -8 -17 -5 -22 3 -6 -1 -15 -9 -22 -8
-7 -12 -17 -8 -23 4 -7 0 -8 -12 -3 -18 7 -18 6 -1 -13 17 -19 17 -21 2 -27
-10 -4 -15 -13 -12 -20 3 -9 -1 -14 -12 -14 -15 0 -15 -2 -2 -10 11 -7 11 -10
2 -10 -7 0 -12 -8 -10 -17 2 -11 -2 -17 -11 -15 -11 2 -12 0 -3 -11 10 -11 9
-17 -3 -27 -8 -7 -15 -9 -15 -4 0 5 -5 2 -11 -6 -8 -12 -12 -12 -16 -2 -4 10
-9 9 -20 -5 -12 -15 -14 -15 -10 -2 4 13 1 15 -14 12 -10 -3 -16 -10 -12 -17
4 -7 1 -7 -7 1 -9 9 -19 9 -33 2 -11 -7 -17 -7 -13 -1 7 11 -44 9 -64 -3 -9
-6 -11 -4 -5 6 8 12 6 12 -8 0 -14 -11 -17 -11 -17 0 0 11 -2 11 -10 -1 -7
-11 -10 -11 -10 -2 0 7 -3 11 -7 9 -5 -3 -14 1 -21 9 -10 11 -10 14 0 14 10 0
10 2 -1 9 -7 5 -10 14 -7 20 4 6 2 11 -3 11 -6 0 -11 5 -11 11 0 5 4 7 10 4 6
-3 7 1 4 9 -3 9 -11 13 -18 9 -6 -4 -5 1 3 10 10 13 10 17 1 17 -9 0 -9 4 -2
13 7 8 6 18 -4 31 -11 16 -11 21 -1 28 8 5 6 8 -8 8 -17 0 -17 2 -5 10 12 8
12 10 1 10 -10 0 -11 3 -2 14 7 8 8 17 3 20 -5 3 -12 15 -15 26 -3 13 -1 18 6
13 7 -4 6 0 -1 10 -8 9 -11 20 -8 26 3 5 -1 11 -9 14 -10 4 -12 1 -8 -11 4
-13 2 -12 -10 3 -8 11 -13 24 -9 30 3 5 -4 2 -15 -8 -16 -14 -22 -15 -26 -5
-4 9 -6 7 -6 -4 -1 -9 -6 -20 -13 -24 -7 -5 -8 -2 -3 7 6 11 5 12 -5 2 -8 -8
-13 -30 -12 -55 2 -32 0 -39 -8 -28 -5 8 -10 10 -10 4 0 -5 4 -14 10 -20 6 -6
4 -19 -5 -37 -8 -15 -10 -25 -5 -22 15 9 12 -2 -6 -19 -10 -10 -11 -16 -3 -16
8 0 8 -4 2 -12 -6 -7 -11 -20 -12 -28 -1 -8 -2 -28 -4 -45 -1 -16 -6 -33 -12
-37 -6 -5 -5 -11 4 -17 17 -11 -43 -21 -61 -10 -6 4 -20 3 -29 -2 -12 -6 -19
-5 -21 3 -3 7 -9 8 -18 3 -19 -12 -51 -14 -44 -3 7 11 -7 10 -26 -2 -9 -5 -19
-5 -26 1 -8 7 -14 6 -19 -1 -3 -5 -12 -10 -18 -10 -7 0 -6 4 3 10 12 8 10 10
-9 10 -19 0 -22 4 -18 21 4 16 2 19 -10 15 -13 -5 -14 -4 -4 8 9 11 9 16 0 22
-8 5 -9 3 -4 -6 5 -8 4 -11 -3 -7 -5 4 -9 18 -7 32 1 14 -2 25 -7 25 -5 0 -8
8 -6 18 2 10 -2 16 -11 14 -12 -3 -12 0 -2 12 9 11 9 16 0 22 -8 5 -9 3 -4 -7
8 -12 6 -12 -8 0 -18 14 -23 26 -8 16 6 -3 9 3 8 14 0 11 -5 17 -11 14 -5 -4
-7 1 -3 10 3 10 2 17 -2 17 -5 0 -12 7 -15 16 -6 15 -4 15 11 3 17 -13 17 -13
0 7 -9 11 -14 24 -10 27 3 4 -1 7 -10 7 -10 0 -17 5 -17 11 0 5 4 7 10 4 6 -3
7 1 4 9 -5 14 -24 21 -46 17 -5 0 -8 7 -9 16 0 15 -2 15 -9 -2 -6 -14 -9 -15
-10 -5 -1 9 -5 6 -11 -8 -5 -13 -13 -21 -18 -18 -14 9 -21 -20 -8 -33 8 -8 7
-11 -3 -11 -9 0 -8 -6 6 -22 10 -12 13 -18 7 -14 -9 5 -13 -1 -14 -21 0 -15
-2 -40 -3 -55 -1 -14 2 -24 6 -22 4 3 8 1 8 -5 0 -5 -6 -12 -12 -14 -8 -3 -5
-6 5 -6 10 -1 15 -6 12 -11 -4 -6 -10 -8 -14 -6 -4 3 -8 -1 -8 -9 0 -8 4 -12
9 -9 4 3 8 0 8 -5 0 -6 -5 -11 -11 -11 -8 0 -8 -5 1 -15 10 -12 10 -15 0 -15
-10 0 -10 -3 0 -15 7 -8 11 -15 9 -16 -25 -5 -51 -4 -55 3 -3 5 -12 4 -19 -2
-10 -8 -15 -8 -20 0 -5 8 -11 8 -21 -1 -11 -9 -14 -9 -14 0 0 7 -4 9 -10 6 -5
-3 -10 -1 -10 5 0 6 -4 9 -9 6 -5 -3 -11 1 -15 9 -3 8 -1 17 5 20 5 4 6 11 3
17 -4 6 0 14 7 19 11 7 9 9 -6 9 -15 0 -17 3 -7 9 11 6 10 10 -4 15 -16 6 -15
8 2 28 11 12 14 18 8 15 -15 -9 -27 20 -12 29 7 5 8 2 3 -6 -5 -9 -4 -11 4 -6
6 4 8 13 4 19 -12 19 -13 40 -2 53 7 8 6 15 -2 20 -8 5 -9 3 -4 -6 5 -9 4 -11
-3 -6 -9 5 -9 13 -2 27 8 13 7 19 0 19 -6 0 -8 5 -5 10 4 6 12 8 18 4 7 -3 3
2 -7 10 -15 12 -16 16 -5 16 8 0 10 3 4 8 -13 9 -18 35 -5 27 5 -3 10 -1 10 4
0 6 -6 11 -12 11 -9 0 -8 4 2 10 13 8 12 10 -4 10 -20 0 -20 0 0 15 13 10 15
17 8 22 -12 9 -26 56 -14 48 4 -3 11 2 14 11 3 8 2 12 -4 9 -6 -4 -10 12 -10
41 0 26 -3 44 -7 41 -3 -4 -11 -3 -17 2 -17 13 -48 22 -42 12 3 -5 -1 -11 -9
-15 -8 -3 -17 -1 -20 4 -3 5 -18 8 -34 8 -15 -1 -33 2 -40 6 -6 4 -11 3 -11
-2 0 -5 -11 -7 -25 -4 -14 2 -25 9 -25 15 0 7 -4 7 -12 -1 -9 -9 -14 -7 -24 6
-8 9 -14 12 -14 5 0 -13 -40 -5 -40 8 0 5 -8 9 -18 9 -10 0 -28 8 -41 17 -18
12 -22 13 -17 2 4 -8 1 -6 -7 4 -8 9 -17 17 -21 17 -4 0 -14 7 -23 15 -8 8
-19 13 -23 10 -5 -3 -7 3 -5 14 2 13 -1 18 -9 15 -7 -3 -18 6 -26 20 -7 14
-16 25 -19 24 -25 -3 -33 3 -22 16 10 11 8 16 -8 21 -11 3 -20 12 -18 18 1 7
-4 11 -10 9 -7 -1 -13 2 -13 6 0 4 6 14 13 21 7 9 8 11 0 7 -12 -7 -36 48 -25
59 4 3 -2 3 -13 -1 -18 -7 -18 -6 -6 9 9 12 10 17 2 17 -7 0 -10 4 -6 9 3 5 1
12 -4 15 -5 3 -7 16 -3 28 4 16 2 19 -9 13 -11 -6 -12 -5 -1 6 17 18 15 29 -5
30 -17 1 -17 2 0 6 9 2 15 9 11 14 -3 5 -10 7 -15 4 -5 -4 -9 -1 -9 4 0 6 7
11 16 11 8 0 12 5 9 10 -4 6 -10 8 -15 5 -7 -4 -7 16 0 35 1 3 1 16 0 29 -1
17 2 21 12 15 11 -6 11 -5 0 8 -9 12 -10 18 -2 23 7 4 10 16 7 26 -3 10 4 35
15 56 16 30 17 35 4 24 -14 -12 -16 -12 -10 3 3 9 10 16 16 16 5 0 6 5 3 10
-3 6 1 10 10 10 9 0 14 4 11 9 -9 14 5 42 17 34 6 -4 8 0 5 8 -5 13 15 42 24
34 2 -2 10 5 17 17 9 15 9 18 0 13 -8 -6 -10 -4 -5 4 5 7 14 10 22 7 8 -3 13
-2 11 2 -3 10 40 51 47 44 3 -3 6 0 6 7 0 8 6 11 16 7 12 -5 15 -2 10 9 -3 9
-2 13 4 10 6 -3 10 -1 10 5 0 6 5 8 10 5 6 -4 16 -2 23 3 7 5 20 8 30 7 9 -2
15 1 11 6 -3 5 7 9 21 9 14 0 24 4 21 8 -2 4 11 7 30 7 19 -1 34 1 34 5 0 10
34 8 48 -3 8 -6 16 -6 25 0 16 13 75 14 83 2 3 -5 11 -6 17 -2 16 10 31 10 37
1 3 -4 22 -8 43 -10 23 -1 37 -7 37 -16 0 -7 5 -10 10 -7 14 9 52 -4 45 -16
-3 -5 2 -6 11 -2 13 5 15 3 9 -8 -7 -12 -6 -12 7 -1 13 10 18 10 24 1 5 -8 3
-10 -7 -5 -8 4 -5 0 5 -8 24 -19 36 -20 36 -3 0 8 4 7 10 -3 8 -12 12 -13 19
-2 4 8 12 14 17 15 5 1 8 6 6 11 -2 5 5 18 15 29 13 15 14 18 3 13 -9 -5 -8
-2 2 7 10 8 15 17 11 21 -4 3 2 13 13 22 10 8 13 12 6 9 -11 -6 -12 -3 -3 14
7 11 16 21 21 21 6 0 9 3 9 8 -4 21 2 31 15 26 11 -4 14 1 12 20 -3 22 -1 24
11 14 8 -6 13 -7 12 -2 -4 21 2 34 16 34 8 0 14 6 12 13 -1 6 4 11 11 10 6 -2
12 2 12 8 0 5 4 7 10 4 6 -4 7 1 3 11 -4 11 -2 15 4 11 6 -4 22 4 36 17 14 13
28 21 31 18 3 -3 6 0 6 7 0 8 6 11 16 7 8 -3 13 -2 10 2 -3 4 4 14 16 21 11 7
17 8 13 2 -10 -18 7 -12 22 7 8 9 11 11 8 4 -6 -11 -3 -11 16 0 13 7 27 18 31
23 5 6 8 4 8 -4 0 -12 3 -12 12 -3 14 14 32 16 23 2 -3 -6 1 -7 9 -4 9 3 16
11 16 16 0 6 6 5 15 -2 12 -10 15 -10 15 0 0 10 3 10 15 0 11 -9 15 -10 15 -1
0 8 8 10 21 6 16 -6 20 -4 14 6 -5 8 1 5 13 -5 22 -19 22 -19 23 0z m-1721
-606 c0 -5 -5 -10 -11 -10 -5 0 -7 5 -4 10 3 6 8 10 11 10 2 0 4 -4 4 -10z
m3384 -396 c3 -8 2 -12 -4 -9 -6 3 -10 10 -10 16 0 14 7 11 14 -7z m-19 -73
c3 -5 2 -12 -3 -15 -5 -3 -9 1 -9 9 0 17 3 19 12 6z m-2375 -1088 c10 9 11 9
6 0 -5 -8 -1 -13 9 -13 9 0 13 4 10 10 -3 6 1 7 9 4 9 -3 13 -10 10 -15 -3 -5
2 -6 10 -3 9 3 13 11 9 18 -3 6 2 3 13 -6 16 -14 23 -15 32 -6 9 9 12 9 12 -2
0 -13 2 -13 10 0 5 8 10 10 10 3 0 -12 17 -12 38 0 6 5 12 4 12 -1 0 -10 36
-9 46 1 4 3 12 3 18 0 15 -10 129 -10 143 0 6 4 14 3 18 -3 3 -5 11 -10 16
-10 6 0 7 5 3 11 -5 8 -1 8 14 0 24 -13 55 -15 48 -3 -3 5 1 9 9 9 8 0 12 -3
10 -7 -6 -10 108 -6 124 4 10 6 12 6 7 -2 -10 -16 16 -15 33 1 8 7 11 7 8 1
-4 -7 3 -14 18 -16 14 -3 22 -1 18 5 -3 5 7 6 27 2 25 -5 31 -4 25 5 -5 9 -4
11 4 6 6 -4 37 -9 67 -11 40 -3 53 -1 47 8 -4 7 1 5 12 -3 10 -8 21 -13 24
-12 33 20 43 23 36 13 -7 -13 35 -9 56 5 8 4 9 3 5 -4 -9 -15 -1 -15 24 -2 13
7 21 7 25 0 5 -8 11 -7 21 1 11 9 14 9 14 -1 0 -9 4 -9 17 1 18 16 23 16 33
-1 5 -8 11 -7 23 4 14 14 16 14 21 0 5 -14 9 -14 22 -3 13 10 19 10 36 0 15
-9 18 -9 13 0 -6 8 1 10 24 7 17 -2 31 -1 31 4 0 4 5 8 11 8 6 0 7 -6 2 -12
-4 -8 2 -7 17 2 22 14 40 17 55 10 3 -1 11 -3 18 -4 6 0 12 -6 12 -13 0 -6 3
-15 7 -19 4 -4 3 -13 -3 -21 -9 -10 -8 -13 2 -13 11 0 11 -2 -1 -10 -10 -6
-11 -10 -2 -10 6 0 12 -5 12 -11 0 -5 -5 -7 -10 -4 -13 8 -9 -17 4 -27 6 -4 4
-13 -3 -22 -11 -13 -11 -16 0 -16 10 0 10 -3 1 -12 -16 -16 -15 -31 1 -22 8 5
8 2 -2 -9 -11 -14 -11 -17 0 -17 9 0 10 -3 4 -8 -12 -8 -12 -62 0 -81 5 -10 4
-12 -3 -7 -7 4 -12 1 -12 -10 0 -12 -6 -15 -25 -12 -13 3 -22 1 -19 -4 3 -5
-7 -7 -23 -5 -15 2 -33 1 -38 -4 -6 -4 -38 -10 -72 -12 -33 -3 -66 -8 -72 -11
-6 -4 -11 -2 -11 4 0 7 -6 8 -17 2 -10 -5 -48 -9 -85 -8 -36 1 -64 -2 -62 -6
2 -4 0 -9 -6 -13 -5 -3 -10 -1 -10 4 0 6 -5 11 -11 11 -5 0 -7 -4 -4 -10 3 -6
-1 -7 -9 -4 -9 3 -13 11 -10 18 3 6 -2 2 -10 -8 -10 -12 -16 -15 -16 -7 0 7
-6 11 -14 8 -7 -3 -19 0 -26 6 -10 9 -11 9 -6 0 3 -6 2 -14 -4 -18 -5 -3 -10
-1 -10 6 0 10 -3 10 -11 2 -8 -8 -20 -8 -35 -3 -17 7 -24 6 -24 -3 0 -8 -4 -7
-10 3 -9 13 -11 13 -20 0 -9 -13 -10 -13 -10 0 0 11 -2 12 -8 3 -5 -8 -13 -9
-22 -3 -9 5 -19 5 -27 -2 -10 -8 -13 -7 -13 3 0 11 -2 11 -10 -1 -8 -12 -10
-12 -10 -1 0 10 -3 11 -14 2 -11 -9 -16 -9 -21 0 -6 8 -10 7 -16 -2 -7 -12 -9
-12 -9 0 0 11 -3 11 -16 0 -13 -10 -17 -10 -25 2 -7 12 -9 12 -9 -1 0 -12 -2
-13 -9 -1 -5 8 -14 10 -22 5 -17 -10 -51 -10 -67 0 -7 4 -12 2 -12 -6 0 -8 -3
-9 -8 -3 -8 12 -55 19 -48 7 8 -13 -30 -7 -47 7 -12 9 -17 9 -23 0 -5 -8 -3
-9 6 -4 9 5 11 4 6 -4 -4 -6 -13 -8 -19 -4 -19 12 -36 12 -43 2 -3 -6 -16 -4
-30 6 -14 9 -24 11 -24 5 0 -7 -7 -7 -21 1 -17 9 -20 8 -14 -2 5 -8 4 -10 -3
-5 -7 4 -29 8 -50 10 -22 2 -45 7 -52 11 -10 6 -12 4 -6 -10 5 -15 4 -16 -8
-6 -8 7 -20 10 -26 6 -5 -3 -10 -2 -10 2 0 5 -18 9 -41 8 -22 -1 -43 3 -45 7
-3 5 -9 6 -14 3 -11 -7 -23 31 -15 45 3 5 0 10 -7 10 -8 1 -6 6 6 15 20 15 20
15 0 16 -10 0 -13 3 -6 6 6 2 9 10 5 16 -9 15 -10 67 0 67 4 0 3 9 -3 20 -8
15 -8 20 1 20 8 0 8 4 -1 15 -6 8 -9 23 -5 36 5 14 2 25 -6 30 -12 7 -12 9 0
9 11 0 11 3 0 17 -12 14 -12 16 0 8 11 -6 13 -4 8 10 -6 14 -3 16 13 12 18 -5
19 -3 8 10 -12 14 -10 14 18 0 24 -12 34 -13 44 -4z m1461 -16 c-10 -9 -11 -8
-5 6 3 10 9 15 12 12 3 -3 0 -11 -7 -18z m-901 -611 c0 -3 -4 -8 -10 -11 -5
-3 -10 -1 -10 4 0 6 5 11 10 11 6 0 10 -2 10 -4z"/>
<path d="M1535 2160 c-3 -5 -1 -10 4 -10 6 0 11 5 11 10 0 6 -2 10 -4 10 -3 0
-8 -4 -11 -10z"/>
<path d="M2267 1223 c3 -7 -5 -10 -21 -9 -14 2 -26 -1 -26 -6 0 -5 -4 -7 -9
-3 -5 3 -13 0 -16 -6 -4 -5 -13 -8 -20 -5 -8 3 -17 -4 -20 -15 -6 -16 -9 -18
-21 -8 -12 10 -15 10 -12 -2 2 -8 -3 -13 -9 -11 -7 1 -13 -6 -13 -15 0 -13 -3
-14 -8 -6 -6 9 -12 7 -22 -7 -8 -11 -19 -20 -25 -20 -5 0 -30 -18 -55 -40 -25
-24 -50 -38 -58 -35 -13 5 -13 3 -1 -12 8 -9 9 -14 2 -10 -7 4 -16 0 -22 -10
-7 -13 -10 -14 -11 -4 0 17 -15 5 -15 -12 -1 -7 -6 -11 -13 -9 -7 1 -15 -5
-18 -13 -4 -8 -12 -15 -20 -15 -8 0 -14 -5 -14 -11 0 -5 -4 -7 -10 -4 -5 3
-10 2 -10 -4 0 -6 -7 -7 -17 -4 -11 4 -14 3 -9 -5 5 -8 0 -12 -14 -12 -11 0
-23 -6 -26 -14 -3 -8 -12 -12 -20 -9 -8 3 -14 0 -14 -7 0 -10 -3 -10 -14 -1
-11 9 -15 9 -18 0 -6 -18 -90 -18 -112 0 -17 14 -18 14 -11 1 8 -13 7 -13 -11
0 -10 8 -26 23 -35 32 -9 10 -22 18 -28 18 -7 0 -9 5 -6 10 3 6 1 10 -5 10 -6
0 -8 5 -5 10 3 6 0 10 -8 10 -15 0 -32 27 -28 43 1 5 -3 6 -9 2 -6 -3 -7 -12
-3 -18 3 -7 -2 -4 -13 5 -13 12 -24 14 -34 8 -8 -5 -11 -10 -6 -10 6 0 1 -7
-10 -15 -11 -8 -14 -15 -6 -15 6 0 12 -5 12 -11 0 -5 -3 -8 -7 -6 -5 3 -9 -6
-9 -19 -1 -13 2 -24 8 -24 5 0 6 5 2 12 -5 7 -3 8 5 3 9 -5 10 -10 2 -18 -7
-7 -7 -16 0 -30 8 -13 8 -17 1 -13 -6 3 -14 1 -18 -5 -4 -8 -3 -9 4 -5 7 4 12
1 12 -7 0 -8 7 -20 15 -27 8 -7 15 -18 15 -24 0 -6 -5 -4 -10 4 -6 9 -10 10
-10 3 0 -6 6 -18 13 -25 8 -7 13 -21 11 -31 -1 -9 7 -28 18 -42 11 -14 16 -25
11 -25 -4 0 6 -13 22 -28 17 -15 24 -23 15 -18 -8 5 -3 -3 13 -17 15 -14 27
-31 27 -37 0 -5 6 -9 13 -7 6 1 11 -6 11 -15 -1 -10 2 -15 7 -12 5 3 9 0 9 -7
0 -8 5 -7 17 2 9 8 14 10 11 4 -3 -5 5 -20 18 -33 13 -12 24 -19 24 -15 1 4
10 -3 22 -17 18 -21 20 -22 15 -5 -7 20 -7 20 8 1 8 -11 15 -17 15 -13 0 5 6
2 14 -5 8 -7 11 -17 8 -23 -3 -5 2 -4 11 4 10 8 17 9 17 3 0 -6 9 -9 20 -7 11
2 19 1 19 -3 -3 -20 3 -23 18 -11 9 8 14 9 11 4 -4 -6 2 -17 14 -24 11 -7 17
-8 13 -2 -3 6 -1 11 4 11 6 0 11 -5 11 -11 0 -6 7 -9 15 -5 8 3 15 0 15 -6 0
-7 5 -6 15 2 12 10 16 9 21 -4 3 -8 16 -16 27 -15 12 0 82 -1 155 -2 107 -2
135 0 143 12 5 8 9 9 9 3 0 -8 11 -8 39 -1 22 6 38 14 35 18 -2 5 5 6 16 4 14
-3 20 1 20 13 0 10 3 13 8 7 9 -14 31 -13 40 2 4 6 14 13 22 15 8 2 21 10 28
18 12 13 13 13 7 0 -4 -8 2 -4 13 9 13 16 25 22 36 18 11 -4 15 -3 10 4 -7 12
30 51 40 42 3 -4 6 -1 6 6 0 7 5 9 10 6 6 -3 10 2 10 12 0 15 2 16 10 3 9 -13
10 -13 10 0 0 13 2 13 9 0 6 -8 7 -19 3 -25 -3 -5 2 -4 11 4 14 11 17 11 18 0
1 -8 1 -18 0 -23 -1 -5 5 -6 14 -3 8 4 15 1 15 -6 0 -7 9 -18 21 -25 15 -10
19 -10 14 -1 -6 8 -4 10 4 5 7 -5 10 -14 7 -22 -4 -10 0 -11 19 -4 20 8 23 6
18 -7 -4 -10 -2 -14 4 -10 6 4 18 0 27 -9 9 -8 20 -12 26 -9 5 3 10 2 10 -3 0
-5 6 -9 13 -10 31 -2 51 -10 54 -19 2 -6 13 -9 23 -6 12 3 20 0 20 -7 0 -9 4
-9 17 1 11 10 14 10 9 1 -9 -14 -11 -14 162 -14 95 1 138 5 150 14 9 7 13 8 9
2 -3 -6 0 -11 8 -11 8 0 12 4 9 9 -3 4 6 8 20 8 14 0 26 6 26 13 0 8 4 7 10
-3 8 -12 10 -12 10 -1 0 8 7 11 20 8 11 -3 18 -2 15 3 -3 4 2 10 9 13 8 3 17
1 20 -6 2 -7 5 -5 5 5 1 9 6 20 13 24 7 4 8 3 4 -4 -4 -7 -3 -12 3 -12 5 0 15
8 20 18 8 12 10 13 11 3 0 -11 4 -9 15 5 8 10 15 15 15 10 0 -5 9 -1 19 8 11
10 25 15 31 11 6 -3 9 -1 8 7 -2 7 3 12 10 11 6 -2 12 4 12 12 0 9 6 12 17 8
11 -4 14 -3 9 5 -7 11 6 17 27 13 5 -1 6 3 2 9 -3 5 -1 10 5 10 6 0 8 5 4 12
-5 8 -2 9 11 4 15 -5 16 -4 6 8 -11 13 -9 15 8 11 17 -3 23 2 28 26 4 21 10
28 20 25 8 -3 12 -2 8 3 -3 5 1 15 8 23 8 7 12 19 10 25 -3 7 5 18 16 24 16
10 17 17 9 32 -6 12 -6 17 0 13 12 -7 26 22 23 48 -2 10 2 15 7 12 6 -4 8 3 4
16 -3 12 -1 19 4 15 6 -3 11 4 11 16 1 12 -3 25 -10 29 -9 6 -9 8 1 8 7 0 10
5 7 10 -3 6 -1 10 4 10 6 0 11 4 11 10 0 5 -8 7 -17 3 -15 -5 -16 -3 -6 7 10
11 9 18 -5 34 -9 11 -12 16 -5 13 6 -4 14 -4 17 1 2 4 -7 9 -22 10 -14 1 -29
-4 -34 -10 -6 -10 -8 -10 -8 0 0 10 -3 10 -14 0 -8 -7 -11 -17 -8 -22 3 -5 -3
-6 -13 -2 -16 6 -16 4 -4 -11 12 -15 12 -16 -3 -10 -12 4 -18 2 -18 -8 0 -8
-5 -15 -11 -15 -5 0 -8 -4 -4 -9 3 -5 0 -13 -6 -17 -8 -4 -9 -3 -5 4 4 7 2 12
-3 12 -6 0 -11 -7 -11 -16 0 -8 -4 -12 -10 -9 -5 3 -10 1 -10 -5 0 -6 -5 -8
-10 -5 -6 3 -13 -1 -16 -9 -4 -11 -11 -13 -30 -5 -18 6 -23 6 -19 -2 5 -7 -4
-9 -25 -5 -18 2 -37 11 -41 18 -7 10 -9 10 -9 -2 0 -9 -3 -11 -8 -5 -4 6 -17
10 -29 9 -12 -1 -21 3 -20 9 1 5 -7 11 -17 13 -10 1 -22 6 -25 11 -3 4 -13 9
-21 11 -8 2 -16 8 -18 13 -2 5 -8 9 -13 9 -5 0 -18 9 -29 20 -12 12 -25 18
-30 15 -6 -4 -10 1 -10 9 0 9 -7 16 -15 16 -8 0 -15 5 -15 10 0 6 -5 10 -11
10 -16 0 -39 26 -31 35 4 5 1 5 -6 1 -16 -9 -55 27 -44 40 4 5 0 3 -10 -4 -14
-11 -17 -10 -23 8 -4 13 -12 19 -21 16 -7 -3 -16 0 -20 6 -5 7 -2 8 6 3 9 -5
11 -4 6 3 -4 7 -14 12 -22 12 -8 0 -14 5 -14 11 0 5 -4 7 -10 4 -5 -3 -10 -1
-10 6 0 7 -3 9 -6 6 -4 -3 -16 -1 -28 5 -11 7 -25 11 -30 10 -5 -2 -6 3 -3 10
2 8 -2 14 -12 15 -47 4 -92 12 -101 18 -5 3 -10 0 -10 -7 0 -9 -3 -9 -10 2 -9
13 -10 13 -10 0 0 -12 -2 -13 -9 -1 -7 11 -11 10 -20 -5 -6 -11 -11 -13 -11
-6 0 8 -5 10 -12 5 -13 -8 -29 -12 -60 -15 -10 -1 -18 -6 -18 -11 0 -4 -4 -5
-10 -2 -5 3 -10 1 -10 -4 0 -6 -7 -11 -15 -11 -8 0 -15 -4 -15 -10 0 -5 -6 -9
-12 -7 -7 1 -12 -3 -11 -10 1 -6 -5 -10 -15 -8 -9 2 -23 4 -30 4 -7 1 -10 6
-7 11 3 6 -3 10 -15 10 -14 0 -19 4 -14 12 5 8 2 9 -9 5 -12 -4 -17 -1 -17 9
0 11 -6 15 -20 11 -10 -3 -21 0 -24 7 -3 6 -5 5 -5 -3 -1 -11 -5 -10 -15 4
-12 17 -16 18 -32 5 -10 -8 -15 -10 -11 -4 4 7 0 14 -8 18 -8 3 -15 1 -15 -5
0 -6 -5 -7 -11 -4 -19 13 -87 11 -82 -2z m-857 -503 c6 -11 8 -20 6 -20 -3 0
-10 9 -16 20 -6 11 -8 20 -6 20 3 0 10 -9 16 -20z"/>
</g>
</svg>
